<svg xmlns="http://www.w3.org/2000/svg" version="1.0" width="26" height="25" viewBox="0 0 26 25" style="enable-background:new 0 0 26 25" xml:space="preserve"><path d="M20 23H6c-.551 0-1 1-1 1v1h16v-1c0-.551-.449-1-1-1zm3-23H3C1.344 0 0 1.344 0 3v14c0 1.656 1.344 3 3 3h7v1c0 .551.449 1 1 1h4c.551 0 1-.516 1-1v-1h7c1.656 0 3-1.344 3-3V3c0-1.656-1.344-3-3-3zM3 16c-.551 0-1-.449-1-1V3c0-.551.449-1 1-1h20c.551 0 1 .449 1 1v12c0 .551-.449 1-1 1H3zm19.999 3.037a1.036 1.036 0 1 1 .002-2.072A1.036 1.036 0 0 1 23 19.037z"/></svg>